<svg version="1.2" xmlns="http://www.w3.org/2000/svg" viewBox="0 0 489 489" width="30" height="30">
	<title>search-svg</title>
	<style>
		.s0 { fill: #000000 } 
	</style>
	<g id="Layer">
		<g id="Layer">
			<path id="Layer" fill-rule="evenodd" class="s0" d="m203.2 0.1c112 0 203.2 91.1 203.2 203.2 0 51.6-19.4 98.8-51.2 134.7l129.6 129.5c4.8 4.8 4.8 12.5 0 17.3-2.4 2.4-5.5 3.6-8.7 3.6-3.2 0-6.3-1.3-8.7-3.6l-129.5-129.5c-35.9 31.8-83.1 51.2-134.7 51.2-112 0-203.2-91.1-203.2-203.2 0-112.1 91.2-203.2 203.2-203.2zm0 24.5c-98.5 0-178.7 80.1-178.7 178.7 0 98.5 80.2 178.7 178.7 178.7 98.5 0 178.7-80.2 178.7-178.7 0-98.6-80.2-178.7-178.7-178.7z"/>
		</g>
	</g>
</svg>